<svg width="30" height="30" viewBox="0 0 30 30" fill="none" xmlns="http://www.w3.org/2000/svg">
<rect width="30" height="30" fill="#1E1E1E"/>
<g id="Admin Dashboard - Remarks Modal" clip-path="url(#clip0_0_1)">
<rect width="1440" height="1024" transform="translate(-1186 -225)" fill="white"/>
<g id="Group 74">
<g id="Desktop - 2" clip-path="url(#clip1_0_1)">
<rect width="1440" height="1579" transform="translate(-1186 -225)" fill="white"/>
<g id="Group 7">
<rect id="Rectangle 15" x="-1186" y="-225" width="1440" height="1579" fill="#FAFAFA"/>
</g>
<g id="Group 52">
<g id="Group 51">
<g id="Group 36">
<g id="card-container" filter="url(#filter0_d_0_1)">
<rect x="-1146" y="33" width="1360" height="1275" rx="19" fill="white"/>
</g>
</g>
<g id="Group 50">
<g id="Group 48">
<rect id="Rectangle 16" x="-236" y="-27" width="450" height="40" rx="4" fill="white" stroke="#8E8E8E" stroke-opacity="0.3"/>
<path id="Search for roll number, name or request type..." d="M-221.232 -0.888C-221.968 -0.888 -222.629 -1.016 -223.216 -1.272C-223.792 -1.53867 -224.245 -1.90133 -224.576 -2.36C-224.907 -2.82933 -225.077 -3.368 -225.088 -3.976H-223.536C-223.483 -3.45333 -223.269 -3.01067 -222.896 -2.648C-222.512 -2.296 -221.957 -2.12 -221.232 -2.12C-220.539 -2.12 -219.995 -2.29067 -219.6 -2.632C-219.195 -2.984 -218.992 -3.432 -218.992 -3.976C-218.992 -4.40267 -219.109 -4.74933 -219.344 -5.016C-219.579 -5.28267 -219.872 -5.48533 -220.224 -5.624C-220.576 -5.76267 -221.051 -5.912 -221.648 -6.072C-222.384 -6.264 -222.976 -6.456 -223.424 -6.648C-223.861 -6.84 -224.24 -7.13867 -224.56 -7.544C-224.869 -7.96 -225.024 -8.51467 -225.024 -9.208C-225.024 -9.816 -224.869 -10.3547 -224.56 -10.824C-224.251 -11.2933 -223.819 -11.656 -223.264 -11.912C-222.699 -12.168 -222.053 -12.296 -221.328 -12.296C-220.283 -12.296 -219.429 -12.0347 -218.768 -11.512C-218.096 -10.9893 -217.717 -10.296 -217.632 -9.432H-219.232C-219.285 -9.85867 -219.509 -10.232 -219.904 -10.552C-220.299 -10.8827 -220.821 -11.048 -221.472 -11.048C-222.08 -11.048 -222.576 -10.888 -222.96 -10.568C-223.344 -10.2587 -223.536 -9.82133 -223.536 -9.256C-223.536 -8.85067 -223.424 -8.52 -223.2 -8.264C-222.965 -8.008 -222.683 -7.81067 -222.352 -7.672C-222.011 -7.544 -221.536 -7.39467 -220.928 -7.224C-220.192 -7.02133 -219.6 -6.81867 -219.152 -6.616C-218.704 -6.424 -218.32 -6.12 -218 -5.704C-217.68 -5.29867 -217.52 -4.744 -217.52 -4.04C-217.52 -3.496 -217.664 -2.984 -217.952 -2.504C-218.24 -2.024 -218.667 -1.63467 -219.232 -1.336C-219.797 -1.03733 -220.464 -0.888 -221.232 -0.888ZM-207.377 -5.72C-207.377 -5.44267 -207.393 -5.14933 -207.425 -4.84H-214.433C-214.38 -3.976 -214.087 -3.29867 -213.553 -2.808C-213.009 -2.328 -212.353 -2.088 -211.585 -2.088C-210.956 -2.088 -210.433 -2.232 -210.017 -2.52C-209.591 -2.81867 -209.292 -3.21333 -209.121 -3.704H-207.553C-207.788 -2.86133 -208.257 -2.17333 -208.961 -1.64C-209.665 -1.11733 -210.54 -0.856 -211.585 -0.856C-212.417 -0.856 -213.164 -1.04267 -213.825 -1.416C-214.476 -1.78933 -214.988 -2.31733 -215.361 -3C-215.735 -3.69333 -215.921 -4.49333 -215.921 -5.4C-215.921 -6.30667 -215.74 -7.10133 -215.377 -7.784C-215.015 -8.46667 -214.508 -8.98933 -213.857 -9.352C-213.196 -9.72533 -212.439 -9.912 -211.585 -9.912C-210.753 -9.912 -210.017 -9.73067 -209.377 -9.368C-208.737 -9.00533 -208.247 -8.504 -207.905 -7.864C-207.553 -7.23467 -207.377 -6.52 -207.377 -5.72ZM-208.881 -6.024C-208.881 -6.57867 -209.004 -7.05333 -209.249 -7.448C-209.495 -7.85333 -209.831 -8.15733 -210.257 -8.36C-210.673 -8.57333 -211.137 -8.68 -211.649 -8.68C-212.385 -8.68 -213.015 -8.44533 -213.537 -7.976C-214.049 -7.50667 -214.343 -6.856 -214.417 -6.024H-208.881ZM-205.999 -5.416C-205.999 -6.312 -205.818 -7.096 -205.455 -7.768C-205.093 -8.45067 -204.597 -8.97867 -203.967 -9.352C-203.327 -9.72533 -202.618 -9.912 -201.839 -9.912C-201.071 -9.912 -200.405 -9.74667 -199.839 -9.416C-199.274 -9.08533 -198.853 -8.66933 -198.575 -8.168V-9.768H-197.103V-1H-198.575V-2.632C-198.863 -2.12 -199.295 -1.69333 -199.871 -1.352C-200.437 -1.02133 -201.098 -0.856 -201.855 -0.856C-202.634 -0.856 -203.338 -1.048 -203.967 -1.432C-204.597 -1.816 -205.093 -2.35467 -205.455 -3.048C-205.818 -3.74133 -205.999 -4.53067 -205.999 -5.416ZM-198.575 -5.4C-198.575 -6.06133 -198.709 -6.63733 -198.975 -7.128C-199.242 -7.61867 -199.605 -7.992 -200.063 -8.248C-200.511 -8.51467 -201.007 -8.648 -201.551 -8.648C-202.095 -8.648 -202.591 -8.52 -203.039 -8.264C-203.487 -8.008 -203.845 -7.63467 -204.111 -7.144C-204.378 -6.65333 -204.511 -6.07733 -204.511 -5.416C-204.511 -4.744 -204.378 -4.15733 -204.111 -3.656C-203.845 -3.16533 -203.487 -2.78667 -203.039 -2.52C-202.591 -2.264 -202.095 -2.136 -201.551 -2.136C-201.007 -2.136 -200.511 -2.264 -200.063 -2.52C-199.605 -2.78667 -199.242 -3.16533 -198.975 -3.656C-198.709 -4.15733 -198.575 -4.73867 -198.575 -5.4ZM-193.187 -8.344C-192.931 -8.84533 -192.568 -9.23467 -192.099 -9.512C-191.619 -9.78933 -191.038 -9.928 -190.355 -9.928V-8.424H-190.739C-192.371 -8.424 -193.187 -7.53867 -193.187 -5.768V-1H-194.643V-9.768H-193.187V-8.344ZM-189.218 -5.4C-189.218 -6.30667 -189.037 -7.096 -188.674 -7.768C-188.312 -8.45067 -187.81 -8.97867 -187.17 -9.352C-186.52 -9.72533 -185.778 -9.912 -184.946 -9.912C-183.869 -9.912 -182.984 -9.65067 -182.29 -9.128C-181.586 -8.60533 -181.122 -7.88 -180.898 -6.952H-182.466C-182.616 -7.48533 -182.909 -7.90667 -183.346 -8.216C-183.773 -8.52533 -184.306 -8.68 -184.946 -8.68C-185.778 -8.68 -186.45 -8.392 -186.962 -7.816C-187.474 -7.25067 -187.73 -6.44533 -187.73 -5.4C-187.73 -4.344 -187.474 -3.528 -186.962 -2.952C-186.45 -2.376 -185.778 -2.088 -184.946 -2.088C-184.306 -2.088 -183.773 -2.23733 -183.346 -2.536C-182.92 -2.83467 -182.626 -3.26133 -182.466 -3.816H-180.898C-181.133 -2.92 -181.602 -2.2 -182.306 -1.656C-183.01 -1.12267 -183.89 -0.856 -184.946 -0.856C-185.778 -0.856 -186.52 -1.04267 -187.17 -1.416C-187.81 -1.78933 -188.312 -2.31733 -188.674 -3C-189.037 -3.68267 -189.218 -4.48267 -189.218 -5.4ZM-174.603 -9.928C-173.942 -9.928 -173.345 -9.784 -172.811 -9.496C-172.278 -9.21867 -171.862 -8.79733 -171.563 -8.232C-171.254 -7.66667 -171.099 -6.97867 -171.099 -6.168V-1H-172.539V-5.96C-172.539 -6.83467 -172.758 -7.50133 -173.195 -7.96C-173.633 -8.42933 -174.23 -8.664 -174.987 -8.664C-175.755 -8.664 -176.369 -8.424 -176.827 -7.944C-177.275 -7.464 -177.499 -6.76533 -177.499 -5.848V-1H-178.955V-12.84H-177.499V-8.52C-177.211 -8.968 -176.817 -9.31467 -176.315 -9.56C-175.803 -9.80533 -175.233 -9.928 -174.603 -9.928ZM-160.887 -8.568H-162.727V-1H-164.183V-8.568H-165.319V-9.768H-164.183V-10.392C-164.183 -11.3733 -163.933 -12.088 -163.431 -12.536C-162.919 -12.9947 -162.103 -13.224 -160.984 -13.224V-12.008C-161.623 -12.008 -162.077 -11.88 -162.343 -11.624C-162.599 -11.3787 -162.727 -10.968 -162.727 -10.392V-9.768H-160.887V-8.568ZM-155.366 -0.856C-156.187 -0.856 -156.934 -1.04267 -157.606 -1.416C-158.267 -1.78933 -158.79 -2.31733 -159.174 -3C-159.547 -3.69333 -159.734 -4.49333 -159.734 -5.4C-159.734 -6.296 -159.542 -7.08533 -159.158 -7.768C-158.763 -8.46133 -158.23 -8.98933 -157.558 -9.352C-156.886 -9.72533 -156.134 -9.912 -155.302 -9.912C-154.47 -9.912 -153.718 -9.72533 -153.046 -9.352C-152.374 -8.98933 -151.846 -8.46667 -151.462 -7.784C-151.067 -7.10133 -150.87 -6.30667 -150.87 -5.4C-150.87 -4.49333 -151.073 -3.69333 -151.478 -3C-151.873 -2.31733 -152.411 -1.78933 -153.094 -1.416C-153.777 -1.04267 -154.534 -0.856 -155.366 -0.856ZM-155.366 -2.136C-154.843 -2.136 -154.353 -2.25867 -153.894 -2.504C-153.435 -2.74933 -153.067 -3.11733 -152.79 -3.608C-152.502 -4.09867 -152.358 -4.696 -152.358 -5.4C-152.358 -6.104 -152.497 -6.70133 -152.774 -7.192C-153.051 -7.68267 -153.414 -8.04533 -153.862 -8.28C-154.31 -8.52533 -154.795 -8.648 -155.318 -8.648C-155.851 -8.648 -156.342 -8.52533 -156.79 -8.28C-157.227 -8.04533 -157.579 -7.68267 -157.846 -7.192C-158.113 -6.70133 -158.246 -6.104 -158.246 -5.4C-158.246 -4.68533 -158.118 -4.08267 -157.862 -3.592C-157.595 -3.10133 -157.243 -2.73333 -156.806 -2.488C-156.369 -2.25333 -155.889 -2.136 -155.366 -2.136ZM-147.499 -8.344C-147.243 -8.84533 -146.881 -9.23467 -146.411 -9.512C-145.931 -9.78933 -145.35 -9.928 -144.667 -9.928V-8.424H-145.051C-146.683 -8.424 -147.499 -7.53867 -147.499 -5.768V-1H-148.955V-9.768H-147.499V-8.344ZM-137.265 -8.344C-137.009 -8.84533 -136.646 -9.23467 -136.177 -9.512C-135.697 -9.78933 -135.116 -9.928 -134.433 -9.928V-8.424H-134.817C-136.449 -8.424 -137.265 -7.53867 -137.265 -5.768V-1H-138.721V-9.768H-137.265V-8.344ZM-128.928 -0.856C-129.75 -0.856 -130.496 -1.04267 -131.168 -1.416C-131.83 -1.78933 -132.352 -2.31733 -132.736 -3C-133.11 -3.69333 -133.296 -4.49333 -133.296 -5.4C-133.296 -6.296 -133.104 -7.08533 -132.72 -7.768C-132.326 -8.46133 -131.792 -8.98933 -131.12 -9.352C-130.448 -9.72533 -129.696 -9.912 -128.864 -9.912C-128.032 -9.912 -127.28 -9.72533 -126.608 -9.352C-125.936 -8.98933 -125.408 -8.46667 -125.024 -7.784C-124.63 -7.10133 -124.432 -6.30667 -124.432 -5.4C-124.432 -4.49333 -124.635 -3.69333 -125.04 -3C-125.435 -2.31733 -125.974 -1.78933 -126.656 -1.416C-127.339 -1.04267 -128.096 -0.856 -128.928 -0.856ZM-128.928 -2.136C-128.406 -2.136 -127.915 -2.25867 -127.456 -2.504C-126.998 -2.74933 -126.63 -3.11733 -126.352 -3.608C-126.064 -4.09867 -125.92 -4.696 -125.92 -5.4C-125.92 -6.104 -126.059 -6.70133 -126.336 -7.192C-126.614 -7.68267 -126.976 -8.04533 -127.424 -8.28C-127.872 -8.52533 -128.358 -8.648 -128.88 -8.648C-129.414 -8.648 -129.904 -8.52533 -130.352 -8.28C-130.79 -8.04533 -131.142 -7.68267 -131.408 -7.192C-131.675 -6.70133 -131.808 -6.104 -131.808 -5.4C-131.808 -4.68533 -131.68 -4.08267 -131.424 -3.592C-131.158 -3.10133 -130.806 -2.73333 -130.368 -2.488C-129.931 -2.25333 -129.451 -2.136 -128.928 -2.136ZM-121.062 -12.84V-1H-122.518V-12.84H-121.062ZM-117.124 -12.84V-1H-118.58V-12.84H-117.124ZM-106.105 -9.928C-105.039 -9.928 -104.175 -9.60267 -103.513 -8.952C-102.852 -8.312 -102.521 -7.384 -102.521 -6.168V-1H-103.961V-5.96C-103.961 -6.83467 -104.18 -7.50133 -104.617 -7.96C-105.055 -8.42933 -105.652 -8.664 -106.409 -8.664C-107.177 -8.664 -107.791 -8.424 -108.249 -7.944C-108.697 -7.464 -108.921 -6.76533 -108.921 -5.848V-1H-110.377V-9.768H-108.921V-8.52C-108.633 -8.968 -108.244 -9.31467 -107.753 -9.56C-107.252 -9.80533 -106.703 -9.928 -106.105 -9.928ZM-92.367 -9.768V-1H-93.823V-2.296C-94.1003 -1.848 -94.4897 -1.496 -94.991 -1.24C-95.4817 -0.994667 -96.0257 -0.872 -96.623 -0.872C-97.3057 -0.872 -97.919 -1.01067 -98.463 -1.288C-99.007 -1.576 -99.439 -2.00267 -99.759 -2.568C-100.068 -3.13333 -100.223 -3.82133 -100.223 -4.632V-9.768H-98.783V-4.824C-98.783 -3.96 -98.5643 -3.29333 -98.127 -2.824C-97.6897 -2.36533 -97.0923 -2.136 -96.335 -2.136C-95.5563 -2.136 -94.943 -2.376 -94.495 -2.856C-94.047 -3.336 -93.823 -4.03467 -93.823 -4.952V-9.768H-92.367ZM-79.3646 -9.928C-78.682 -9.928 -78.074 -9.784 -77.5406 -9.496C-77.0073 -9.21867 -76.586 -8.79733 -76.2766 -8.232C-75.9673 -7.66667 -75.8126 -6.97867 -75.8126 -6.168V-1H-77.2526V-5.96C-77.2526 -6.83467 -77.4713 -7.50133 -77.9086 -7.96C-78.3353 -8.42933 -78.9166 -8.664 -79.6526 -8.664C-80.41 -8.664 -81.0126 -8.41867 -81.4606 -7.928C-81.9086 -7.448 -82.1326 -6.74933 -82.1326 -5.832V-1H-83.5726V-5.96C-83.5726 -6.83467 -83.7913 -7.50133 -84.2286 -7.96C-84.6553 -8.42933 -85.2366 -8.664 -85.9726 -8.664C-86.73 -8.664 -87.3326 -8.41867 -87.7806 -7.928C-88.2286 -7.448 -88.4526 -6.74933 -88.4526 -5.832V-1H-89.9086V-9.768H-88.4526V-8.504C-88.1646 -8.96267 -87.7806 -9.31467 -87.3006 -9.56C-86.81 -9.80533 -86.2713 -9.928 -85.6846 -9.928C-84.9486 -9.928 -84.298 -9.76267 -83.7326 -9.432C-83.1673 -9.10133 -82.746 -8.616 -82.4686 -7.976C-82.2233 -8.59467 -81.818 -9.07467 -81.2526 -9.416C-80.6873 -9.75733 -80.058 -9.928 -79.3646 -9.928ZM-71.9682 -8.136C-71.6696 -8.65867 -71.2322 -9.08533 -70.6562 -9.416C-70.0802 -9.74667 -69.4242 -9.912 -68.6882 -9.912C-67.8989 -9.912 -67.1896 -9.72533 -66.5602 -9.352C-65.9309 -8.97867 -65.4349 -8.45067 -65.0722 -7.768C-64.7096 -7.096 -64.5282 -6.312 -64.5282 -5.416C-64.5282 -4.53067 -64.7096 -3.74133 -65.0722 -3.048C-65.4349 -2.35467 -65.9363 -1.816 -66.5763 -1.432C-67.2056 -1.048 -67.9096 -0.856 -68.6882 -0.856C-69.4456 -0.856 -70.1122 -1.02133 -70.6882 -1.352C-71.2536 -1.68267 -71.6802 -2.104 -71.9682 -2.616V-1H-73.4242V-12.84H-71.9682V-8.136ZM-66.0162 -5.416C-66.0162 -6.07733 -66.1496 -6.65333 -66.4162 -7.144C-66.6829 -7.63467 -67.0456 -8.008 -67.5042 -8.264C-67.9522 -8.52 -68.4482 -8.648 -68.9922 -8.648C-69.5256 -8.648 -70.0216 -8.51467 -70.4802 -8.248C-70.9282 -7.992 -71.2909 -7.61333 -71.5682 -7.112C-71.8349 -6.62133 -71.9682 -6.05067 -71.9682 -5.4C-71.9682 -4.73867 -71.8349 -4.15733 -71.5682 -3.656C-71.2909 -3.16533 -70.9282 -2.78667 -70.4802 -2.52C-70.0216 -2.264 -69.5256 -2.136 -68.9922 -2.136C-68.4482 -2.136 -67.9522 -2.264 -67.5042 -2.52C-67.0456 -2.78667 -66.6829 -3.16533 -66.4162 -3.656C-66.1496 -4.15733 -66.0162 -4.744 -66.0162 -5.416ZM-54.6117 -5.72C-54.6117 -5.44267 -54.6277 -5.14933 -54.6597 -4.84H-61.6677C-61.6144 -3.976 -61.3211 -3.29867 -60.7877 -2.808C-60.2437 -2.328 -59.5877 -2.088 -58.8197 -2.088C-58.1904 -2.088 -57.6677 -2.232 -57.2517 -2.52C-56.8251 -2.81867 -56.5264 -3.21333 -56.3557 -3.704H-54.7877C-55.0224 -2.86133 -55.4917 -2.17333 -56.1957 -1.64C-56.8997 -1.11733 -57.7744 -0.856 -58.8197 -0.856C-59.6517 -0.856 -60.3984 -1.04267 -61.0597 -1.416C-61.7104 -1.78933 -62.2224 -2.31733 -62.5957 -3C-62.9691 -3.69333 -63.1557 -4.49333 -63.1557 -5.4C-63.1557 -6.30667 -62.9744 -7.10133 -62.6117 -7.784C-62.2491 -8.46667 -61.7424 -8.98933 -61.0917 -9.352C-60.4304 -9.72533 -59.6731 -9.912 -58.8197 -9.912C-57.9877 -9.912 -57.2517 -9.73067 -56.6117 -9.368C-55.9717 -9.00533 -55.4811 -8.504 -55.1397 -7.864C-54.7877 -7.23467 -54.6117 -6.52 -54.6117 -5.72ZM-56.1157 -6.024C-56.1157 -6.57867 -56.2384 -7.05333 -56.4837 -7.448C-56.7291 -7.85333 -57.0651 -8.15733 -57.4917 -8.36C-57.9077 -8.57333 -58.3717 -8.68 -58.8837 -8.68C-59.6197 -8.68 -60.2491 -8.44533 -60.7717 -7.976C-61.2837 -7.50667 -61.5771 -6.856 -61.6517 -6.024H-56.1157ZM-51.2339 -8.344C-50.9779 -8.84533 -50.6152 -9.23467 -50.1459 -9.512C-49.6659 -9.78933 -49.0845 -9.928 -48.4019 -9.928V-8.424H-48.7859C-50.4179 -8.424 -51.2339 -7.53867 -51.2339 -5.768V-1H-52.6899V-9.768H-51.2339V-8.344ZM-45.2171 -3.016L-47.0091 1.288H-47.9851L-46.8171 -3.016H-45.2171ZM-35.0116 -9.928C-33.945 -9.928 -33.081 -9.60267 -32.4196 -8.952C-31.7583 -8.312 -31.4276 -7.384 -31.4276 -6.168V-1H-32.8676V-5.96C-32.8676 -6.83467 -33.0863 -7.50133 -33.5236 -7.96C-33.961 -8.42933 -34.5583 -8.664 -35.3156 -8.664C-36.0836 -8.664 -36.697 -8.424 -37.1556 -7.944C-37.6036 -7.464 -37.8276 -6.76533 -37.8276 -5.848V-1H-39.2836V-9.768H-37.8276V-8.52C-37.5396 -8.968 -37.1503 -9.31467 -36.6596 -9.56C-36.1583 -9.80533 -35.609 -9.928 -35.0116 -9.928ZM-29.5932 -5.416C-29.5932 -6.312 -29.4119 -7.096 -29.0492 -7.768C-28.6866 -8.45067 -28.1906 -8.97867 -27.5612 -9.352C-26.9212 -9.72533 -26.2119 -9.912 -25.4332 -9.912C-24.6652 -9.912 -23.9986 -9.74667 -23.4332 -9.416C-22.8679 -9.08533 -22.4466 -8.66933 -22.1692 -8.168V-9.768H-20.6972V-1H-22.1692V-2.632C-22.4572 -2.12 -22.8892 -1.69333 -23.4652 -1.352C-24.0306 -1.02133 -24.6919 -0.856 -25.4492 -0.856C-26.2279 -0.856 -26.9319 -1.048 -27.5612 -1.432C-28.1906 -1.816 -28.6866 -2.35467 -29.0492 -3.048C-29.4119 -3.74133 -29.5932 -4.53067 -29.5932 -5.416ZM-22.1692 -5.4C-22.1692 -6.06133 -22.3026 -6.63733 -22.5692 -7.128C-22.8359 -7.61867 -23.1986 -7.992 -23.6572 -8.248C-24.1052 -8.51467 -24.6012 -8.648 -25.1452 -8.648C-25.6892 -8.648 -26.1852 -8.52 -26.6332 -8.264C-27.0812 -8.008 -27.4386 -7.63467 -27.7052 -7.144C-27.9719 -6.65333 -28.1052 -6.07733 -28.1052 -5.416C-28.1052 -4.744 -27.9719 -4.15733 -27.7052 -3.656C-27.4386 -3.16533 -27.0812 -2.78667 -26.6332 -2.52C-26.1852 -2.264 -25.6892 -2.136 -25.1452 -2.136C-24.6012 -2.136 -24.1052 -2.264 -23.6572 -2.52C-23.1986 -2.78667 -22.8359 -3.16533 -22.5692 -3.656C-22.3026 -4.15733 -22.1692 -4.73867 -22.1692 -5.4ZM-7.69275 -9.928C-7.01008 -9.928 -6.40208 -9.784 -5.86875 -9.496C-5.33542 -9.21867 -4.91408 -8.79733 -4.60475 -8.232C-4.29542 -7.66667 -4.14075 -6.97867 -4.14075 -6.168V-1H-5.58075V-5.96C-5.58075 -6.83467 -5.79942 -7.50133 -6.23675 -7.96C-6.66342 -8.42933 -7.24475 -8.664 -7.98075 -8.664C-8.73808 -8.664 -9.34075 -8.41867 -9.78875 -7.928C-10.2367 -7.448 -10.4607 -6.74933 -10.4607 -5.832V-1H-11.9007V-5.96C-11.9007 -6.83467 -12.1194 -7.50133 -12.5567 -7.96C-12.9834 -8.42933 -13.5647 -8.664 -14.3007 -8.664C-15.0581 -8.664 -15.6607 -8.41867 -16.1087 -7.928C-16.5567 -7.448 -16.7807 -6.74933 -16.7807 -5.832V-1H-18.2367V-9.768H-16.7807V-8.504C-16.4927 -8.96267 -16.1087 -9.31467 -15.6287 -9.56C-15.1381 -9.80533 -14.5994 -9.928 -14.0127 -9.928C-13.2767 -9.928 -12.6261 -9.76267 -12.0607 -9.432C-11.4954 -9.10133 -11.0741 -8.616 -10.7967 -7.976C-10.5514 -8.59467 -10.1461 -9.07467 -9.58075 -9.416C-9.01542 -9.75733 -8.38608 -9.928 -7.69275 -9.928ZM6.24763 -5.72C6.24763 -5.44267 6.23163 -5.14933 6.19963 -4.84H-0.808375C-0.755042 -3.976 -0.461708 -3.29867 0.0716252 -2.808C0.615625 -2.328 1.27163 -2.088 2.03963 -2.088C2.66896 -2.088 3.19163 -2.232 3.60763 -2.52C4.03429 -2.81867 4.33296 -3.21333 4.50363 -3.704H6.07163C5.83696 -2.86133 5.36763 -2.17333 4.66363 -1.64C3.95963 -1.11733 3.08496 -0.856 2.03963 -0.856C1.20763 -0.856 0.460959 -1.04267 -0.200375 -1.416C-0.851042 -1.78933 -1.36304 -2.31733 -1.73637 -3C-2.10971 -3.69333 -2.29637 -4.49333 -2.29637 -5.4C-2.29637 -6.30667 -2.11504 -7.10133 -1.75237 -7.784C-1.38971 -8.46667 -0.883042 -8.98933 -0.232375 -9.352C0.428958 -9.72533 1.18629 -9.912 2.03963 -9.912C2.87163 -9.912 3.60763 -9.73067 4.24763 -9.368C4.88763 -9.00533 5.37829 -8.504 5.71963 -7.864C6.07163 -7.23467 6.24763 -6.52 6.24763 -5.72ZM4.74363 -6.024C4.74363 -6.57867 4.62096 -7.05333 4.37563 -7.448C4.13029 -7.85333 3.79429 -8.15733 3.36763 -8.36C2.95163 -8.57333 2.48763 -8.68 1.97563 -8.68C1.23963 -8.68 0.610292 -8.44533 0.087625 -7.976C-0.424375 -7.50667 -0.717708 -6.856 -0.792375 -6.024H4.74363ZM16.2591 -0.856C15.4378 -0.856 14.6911 -1.04267 14.0191 -1.416C13.3578 -1.78933 12.8351 -2.31733 12.4511 -3C12.0778 -3.69333 11.8911 -4.49333 11.8911 -5.4C11.8911 -6.296 12.0831 -7.08533 12.4671 -7.768C12.8618 -8.46133 13.3951 -8.98933 14.0671 -9.352C14.7391 -9.72533 15.4911 -9.912 16.3231 -9.912C17.1551 -9.912 17.9071 -9.72533 18.5791 -9.352C19.2511 -8.98933 19.7791 -8.46667 20.1631 -7.784C20.5578 -7.10133 20.7551 -6.30667 20.7551 -5.4C20.7551 -4.49333 20.5525 -3.69333 20.1471 -3C19.7525 -2.31733 19.2138 -1.78933 18.5311 -1.416C17.8485 -1.04267 17.0911 -0.856 16.2591 -0.856ZM16.2591 -2.136C16.7818 -2.136 17.2725 -2.25867 17.7311 -2.504C18.1898 -2.74933 18.5578 -3.11733 18.8351 -3.608C19.1231 -4.09867 19.2671 -4.696 19.2671 -5.4C19.2671 -6.104 19.1285 -6.70133 18.8511 -7.192C18.5738 -7.68267 18.2111 -8.04533 17.7631 -8.28C17.3151 -8.52533 16.8298 -8.648 16.3071 -8.648C15.7738 -8.648 15.2831 -8.52533 14.8351 -8.28C14.3978 -8.04533 14.0458 -7.68267 13.7791 -7.192C13.5125 -6.70133 13.3791 -6.104 13.3791 -5.4C13.3791 -4.68533 13.5071 -4.08267 13.7631 -3.592C14.0298 -3.10133 14.3818 -2.73333 14.8191 -2.488C15.2565 -2.25333 15.7365 -2.136 16.2591 -2.136ZM24.1255 -8.344C24.3815 -8.84533 24.7442 -9.23467 25.2135 -9.512C25.6935 -9.78933 26.2748 -9.928 26.9575 -9.928V-8.424H26.5735C24.9415 -8.424 24.1255 -7.53867 24.1255 -5.768V-1H22.6695V-9.768H24.1255V-8.344ZM34.3599 -8.344C34.6159 -8.84533 34.9785 -9.23467 35.4479 -9.512C35.9279 -9.78933 36.5092 -9.928 37.1919 -9.928V-8.424H36.8079C35.1759 -8.424 34.3599 -7.53867 34.3599 -5.768V-1H32.9039V-9.768H34.3599V-8.344ZM46.8726 -5.72C46.8726 -5.44267 46.8566 -5.14933 46.8246 -4.84H39.8166C39.87 -3.976 40.1633 -3.29867 40.6966 -2.808C41.2406 -2.328 41.8966 -2.088 42.6646 -2.088C43.294 -2.088 43.8166 -2.232 44.2326 -2.52C44.6593 -2.81867 44.958 -3.21333 45.1286 -3.704H46.6966C46.462 -2.86133 45.9926 -2.17333 45.2886 -1.64C44.5846 -1.11733 43.71 -0.856 42.6646 -0.856C41.8326 -0.856 41.086 -1.04267 40.4246 -1.416C39.774 -1.78933 39.262 -2.31733 38.8886 -3C38.5153 -3.69333 38.3286 -4.49333 38.3286 -5.4C38.3286 -6.30667 38.51 -7.10133 38.8726 -7.784C39.2353 -8.46667 39.742 -8.98933 40.3926 -9.352C41.054 -9.72533 41.8113 -9.912 42.6646 -9.912C43.4966 -9.912 44.2326 -9.73067 44.8726 -9.368C45.5126 -9.00533 46.0033 -8.504 46.3446 -7.864C46.6966 -7.23467 46.8726 -6.52 46.8726 -5.72ZM45.3686 -6.024C45.3686 -6.57867 45.246 -7.05333 45.0006 -7.448C44.7553 -7.85333 44.4193 -8.15733 43.9926 -8.36C43.5766 -8.57333 43.1126 -8.68 42.6006 -8.68C41.8646 -8.68 41.2353 -8.44533 40.7126 -7.976C40.2006 -7.50667 39.9073 -6.856 39.8326 -6.024H45.3686ZM48.2505 -5.416C48.2505 -6.312 48.4318 -7.096 48.7945 -7.768C49.1572 -8.45067 49.6532 -8.97867 50.2825 -9.352C50.9225 -9.72533 51.6372 -9.912 52.4265 -9.912C53.1838 -9.912 53.8452 -9.74133 54.4105 -9.4C54.9865 -9.06933 55.4078 -8.65867 55.6745 -8.168V-9.768H57.1465V3.16H55.6745V-2.616C55.3972 -2.12533 54.9705 -1.70933 54.3945 -1.368C53.8185 -1.02667 53.1465 -0.856 52.3785 -0.856C51.6105 -0.856 50.9118 -1.048 50.2825 -1.432C49.6532 -1.816 49.1572 -2.35467 48.7945 -3.048C48.4318 -3.74133 48.2505 -4.53067 48.2505 -5.416ZM55.6745 -5.4C55.6745 -6.06133 55.5412 -6.63733 55.2745 -7.128C55.0078 -7.61867 54.6452 -7.992 54.1865 -8.248C53.7385 -8.51467 53.2425 -8.648 52.6985 -8.648C52.1545 -8.648 51.6585 -8.52 51.2105 -8.264C50.7625 -8.008 50.4052 -7.63467 50.1385 -7.144C49.8718 -6.65333 49.7385 -6.07733 49.7385 -5.416C49.7385 -4.744 49.8718 -4.15733 50.1385 -3.656C50.4052 -3.16533 50.7625 -2.78667 51.2105 -2.52C51.6585 -2.264 52.1545 -2.136 52.6985 -2.136C53.2425 -2.136 53.7385 -2.264 54.1865 -2.52C54.6452 -2.78667 55.0078 -3.16533 55.2745 -3.656C55.5412 -4.15733 55.6745 -4.73867 55.6745 -5.4ZM67.383 -9.768V-1H65.927V-2.296C65.6497 -1.848 65.2603 -1.496 64.759 -1.24C64.2683 -0.994667 63.7243 -0.872 63.127 -0.872C62.4443 -0.872 61.831 -1.01067 61.287 -1.288C60.743 -1.576 60.311 -2.00267 59.991 -2.568C59.6817 -3.13333 59.527 -3.82133 59.527 -4.632V-9.768H60.967V-4.824C60.967 -3.96 61.1857 -3.29333 61.623 -2.824C62.0603 -2.36533 62.6577 -2.136 63.415 -2.136C64.1937 -2.136 64.807 -2.376 65.255 -2.856C65.703 -3.336 65.927 -4.03467 65.927 -4.952V-9.768H67.383ZM77.8414 -5.72C77.8414 -5.44267 77.8254 -5.14933 77.7934 -4.84H70.7854C70.8387 -3.976 71.132 -3.29867 71.6654 -2.808C72.2094 -2.328 72.8654 -2.088 73.6334 -2.088C74.2627 -2.088 74.7854 -2.232 75.2014 -2.52C75.628 -2.81867 75.9267 -3.21333 76.0974 -3.704H77.6654C77.4307 -2.86133 76.9614 -2.17333 76.2574 -1.64C75.5534 -1.11733 74.6787 -0.856 73.6334 -0.856C72.8014 -0.856 72.0547 -1.04267 71.3934 -1.416C70.7427 -1.78933 70.2307 -2.31733 69.8574 -3C69.484 -3.69333 69.2974 -4.49333 69.2974 -5.4C69.2974 -6.30667 69.4787 -7.10133 69.8414 -7.784C70.204 -8.46667 70.7107 -8.98933 71.3614 -9.352C72.0227 -9.72533 72.78 -9.912 73.6334 -9.912C74.4654 -9.912 75.2014 -9.73067 75.8414 -9.368C76.4814 -9.00533 76.972 -8.504 77.3134 -7.864C77.6654 -7.23467 77.8414 -6.52 77.8414 -5.72ZM76.3374 -6.024C76.3374 -6.57867 76.2147 -7.05333 75.9694 -7.448C75.724 -7.85333 75.388 -8.15733 74.9614 -8.36C74.5454 -8.57333 74.0814 -8.68 73.5694 -8.68C72.8334 -8.68 72.204 -8.44533 71.6814 -7.976C71.1694 -7.50667 70.876 -6.856 70.8014 -6.024H76.3374ZM82.8673 -0.856C82.1953 -0.856 81.5926 -0.968 81.0593 -1.192C80.5259 -1.42667 80.1046 -1.74667 79.7953 -2.152C79.4859 -2.568 79.3153 -3.04267 79.2833 -3.576H80.7873C80.8299 -3.13867 81.0326 -2.78133 81.3953 -2.504C81.7686 -2.22667 82.2539 -2.088 82.8513 -2.088C83.4059 -2.088 83.8433 -2.21067 84.1633 -2.456C84.4833 -2.70133 84.6433 -3.01067 84.6433 -3.384C84.6433 -3.768 84.4726 -4.05067 84.1313 -4.232C83.7899 -4.424 83.2619 -4.61067 82.5473 -4.792C81.8966 -4.96267 81.3633 -5.13333 80.9473 -5.304C80.5419 -5.48533 80.1899 -5.74667 79.8913 -6.088C79.6033 -6.44 79.4593 -6.89867 79.4593 -7.464C79.4593 -7.912 79.5926 -8.32267 79.8593 -8.696C80.1259 -9.06933 80.5046 -9.36267 80.9953 -9.576C81.4859 -9.8 82.0459 -9.912 82.6753 -9.912C83.6459 -9.912 84.4299 -9.66667 85.0273 -9.176C85.6246 -8.68533 85.9446 -8.01333 85.9873 -7.16H84.5313C84.4993 -7.61867 84.3126 -7.98667 83.9713 -8.264C83.6406 -8.54133 83.1926 -8.68 82.6273 -8.68C82.1046 -8.68 81.6886 -8.568 81.3793 -8.344C81.0699 -8.12 80.9153 -7.82667 80.9153 -7.464C80.9153 -7.176 81.0059 -6.936 81.1873 -6.744C81.3793 -6.56267 81.6139 -6.41333 81.8913 -6.296C82.1793 -6.18933 82.5739 -6.06667 83.0753 -5.928C83.7046 -5.75733 84.2166 -5.58667 84.6113 -5.416C85.0059 -5.256 85.3419 -5.01067 85.6193 -4.68C85.9073 -4.34933 86.0566 -3.91733 86.0673 -3.384C86.0673 -2.904 85.9339 -2.472 85.6673 -2.088C85.4006 -1.704 85.0219 -1.4 84.5313 -1.176C84.0513 -0.962667 83.4966 -0.856 82.8673 -0.856ZM89.8986 -8.568V-3.4C89.8986 -2.97333 89.9893 -2.66933 90.1706 -2.488C90.352 -2.31733 90.6666 -2.232 91.1146 -2.232H92.1866V-1H90.8746C90.064 -1 89.456 -1.18667 89.0506 -1.56C88.6453 -1.93333 88.4426 -2.54667 88.4426 -3.4V-8.568H87.3066V-9.768H88.4426V-11.976H89.8986V-9.768H92.1866V-8.568H89.8986ZM99.9924 -8.568V-3.4C99.9924 -2.97333 100.083 -2.66933 100.264 -2.488C100.446 -2.31733 100.76 -2.232 101.208 -2.232H102.28V-1H100.968C100.158 -1 99.5497 -1.18667 99.1444 -1.56C98.739 -1.93333 98.5364 -2.54667 98.5364 -3.4V-8.568H97.4004V-9.768H98.5364V-11.976H99.9924V-9.768H102.28V-8.568H99.9924ZM111.597 -9.768L106.317 3.128H104.812L106.541 -1.096L103.005 -9.768H104.621L107.373 -2.664L110.093 -9.768H111.597ZM114.516 -8.152C114.804 -8.65333 115.231 -9.06933 115.796 -9.4C116.372 -9.74133 117.039 -9.912 117.796 -9.912C118.575 -9.912 119.279 -9.72533 119.908 -9.352C120.548 -8.97867 121.049 -8.45067 121.412 -7.768C121.775 -7.096 121.956 -6.312 121.956 -5.416C121.956 -4.53067 121.775 -3.74133 121.412 -3.048C121.049 -2.35467 120.548 -1.816 119.908 -1.432C119.279 -1.048 118.575 -0.856 117.796 -0.856C117.049 -0.856 116.388 -1.02133 115.812 -1.352C115.247 -1.69333 114.815 -2.11467 114.516 -2.616V3.16H113.06V-9.768H114.516V-8.152ZM120.468 -5.416C120.468 -6.07733 120.335 -6.65333 120.068 -7.144C119.801 -7.63467 119.439 -8.008 118.98 -8.264C118.532 -8.52 118.036 -8.648 117.492 -8.648C116.959 -8.648 116.463 -8.51467 116.004 -8.248C115.556 -7.992 115.193 -7.61333 114.916 -7.112C114.649 -6.62133 114.516 -6.05067 114.516 -5.4C114.516 -4.73867 114.649 -4.15733 114.916 -3.656C115.193 -3.16533 115.556 -2.78667 116.004 -2.52C116.463 -2.264 116.959 -2.136 117.492 -2.136C118.036 -2.136 118.532 -2.264 118.98 -2.52C119.439 -2.78667 119.801 -3.16533 120.068 -3.656C120.335 -4.15733 120.468 -4.744 120.468 -5.416ZM131.873 -5.72C131.873 -5.44267 131.857 -5.14933 131.825 -4.84H124.817C124.87 -3.976 125.163 -3.29867 125.697 -2.808C126.241 -2.328 126.897 -2.088 127.665 -2.088C128.294 -2.088 128.817 -2.232 129.233 -2.52C129.659 -2.81867 129.958 -3.21333 130.129 -3.704H131.697C131.462 -2.86133 130.993 -2.17333 130.289 -1.64C129.585 -1.11733 128.71 -0.856 127.665 -0.856C126.833 -0.856 126.086 -1.04267 125.425 -1.416C124.774 -1.78933 124.262 -2.31733 123.889 -3C123.515 -3.69333 123.329 -4.49333 123.329 -5.4C123.329 -6.30667 123.51 -7.10133 123.873 -7.784C124.235 -8.46667 124.742 -8.98933 125.393 -9.352C126.054 -9.72533 126.811 -9.912 127.665 -9.912C128.497 -9.912 129.233 -9.73067 129.873 -9.368C130.513 -9.00533 131.003 -8.504 131.345 -7.864C131.697 -7.23467 131.873 -6.52 131.873 -5.72ZM130.369 -6.024C130.369 -6.57867 130.246 -7.05333 130.001 -7.448C129.755 -7.85333 129.419 -8.15733 128.993 -8.36C128.577 -8.57333 128.113 -8.68 127.601 -8.68C126.865 -8.68 126.235 -8.44533 125.713 -7.976C125.201 -7.50667 124.907 -6.856 124.833 -6.024H130.369ZM134.259 -0.904C133.981 -0.904 133.747 -1 133.555 -1.192C133.363 -1.384 133.267 -1.61867 133.267 -1.896C133.267 -2.17333 133.363 -2.408 133.555 -2.6C133.747 -2.792 133.981 -2.888 134.259 -2.888C134.525 -2.888 134.749 -2.792 134.931 -2.6C135.123 -2.408 135.219 -2.17333 135.219 -1.896C135.219 -1.61867 135.123 -1.384 134.931 -1.192C134.749 -1 134.525 -0.904 134.259 -0.904ZM137.618 -0.904C137.341 -0.904 137.106 -1 136.914 -1.192C136.722 -1.384 136.626 -1.61867 136.626 -1.896C136.626 -2.17333 136.722 -2.408 136.914 -2.6C137.106 -2.792 137.341 -2.888 137.618 -2.888C137.885 -2.888 138.109 -2.792 138.29 -2.6C138.482 -2.408 138.578 -2.17333 138.578 -1.896C138.578 -1.61867 138.482 -1.384 138.29 -1.192C138.109 -1 137.885 -0.904 137.618 -0.904ZM140.977 -0.904C140.7 -0.904 140.465 -1 140.273 -1.192C140.081 -1.384 139.985 -1.61867 139.985 -1.896C139.985 -2.17333 140.081 -2.408 140.273 -2.6C140.465 -2.792 140.7 -2.888 140.977 -2.888C141.244 -2.888 141.468 -2.792 141.649 -2.6C141.841 -2.408 141.937 -2.17333 141.937 -1.896C141.937 -1.61867 141.841 -1.384 141.649 -1.192C141.468 -1 141.244 -0.904 140.977 -0.904Z" fill="#8E8E8E"/>
</g>
</g>
</g>
</g>
</g>
</g>
<rect id="Rectangle 33" x="-1186" y="-225" width="1440" height="1024" fill="#05386B" fill-opacity="0.7"/>
<rect id="Rectangle 34" x="-952" y="10" width="972" height="554" rx="10" fill="white"/>
<g id="Group 75">
<rect id="Rectangle 17" width="30" height="30" rx="15" fill="#F76A6A"/>
<path id="Vector 3" d="M9 9L21 21M21 9L9 21" stroke="#E2E2E2" stroke-linecap="round" stroke-linejoin="round"/>
</g>
</g>
<defs>
<filter id="filter0_d_0_1" x="-1156" y="23" width="1380" height="1295" filterUnits="userSpaceOnUse" color-interpolation-filters="sRGB">
<feFlood flood-opacity="0" result="BackgroundImageFix"/>
<feColorMatrix in="SourceAlpha" type="matrix" values="0 0 0 0 0 0 0 0 0 0 0 0 0 0 0 0 0 0 127 0" result="hardAlpha"/>
<feOffset/>
<feGaussianBlur stdDeviation="5"/>
<feComposite in2="hardAlpha" operator="out"/>
<feColorMatrix type="matrix" values="0 0 0 0 0 0 0 0 0 0 0 0 0 0 0 0 0 0 0.25 0"/>
<feBlend mode="normal" in2="BackgroundImageFix" result="effect1_dropShadow_0_1"/>
<feBlend mode="normal" in="SourceGraphic" in2="effect1_dropShadow_0_1" result="shape"/>
</filter>
<clipPath id="clip0_0_1">
<rect width="1440" height="1024" fill="white" transform="translate(-1186 -225)"/>
</clipPath>
<clipPath id="clip1_0_1">
<rect width="1440" height="1579" fill="white" transform="translate(-1186 -225)"/>
</clipPath>
</defs>
</svg>
