<svg width="18" height="18" viewBox="0 0 18 18" fill="none" xmlns="http://www.w3.org/2000/svg">
<path fill-rule="evenodd" clip-rule="evenodd" d="M1.73291 11.7104C1.88128 11.8915 2.03997 12.0669 2.20897 12.2359C4.80883 14.8357 8.92545 14.9944 11.7105 12.7119C11.8015 12.6373 11.8911 12.5601 11.9792 12.4802C11.9813 12.4823 11.9833 12.4844 11.9854 12.4865L16.9989 17.5C17.1373 17.6384 17.3618 17.6384 17.5002 17.5C17.6386 17.3615 17.6386 17.1371 17.5002 16.9986L12.4867 11.9852C12.4847 11.9831 12.4826 11.981 12.4804 11.979C15.0023 9.19599 14.9208 4.89369 12.236 2.20887C9.46709 -0.559989 4.97786 -0.559979 2.20899 2.2089C-0.390887 4.80877 -0.549582 8.9254 1.73291 11.7104ZM2.71032 11.7345C5.20229 14.2265 9.24259 14.2265 11.7346 11.7345C14.2266 9.2425 14.2266 5.2022 11.7346 2.71022C9.24263 0.218246 5.20232 0.218255 2.71034 2.71024C0.218347 5.20223 0.218338 9.24253 2.71032 11.7345Z" fill="#D9D9D9"/>
</svg>
